<svg version="1" xmlns="http://www.w3.org/2000/svg" width="341.333" height="341.333" viewBox="0 0 256.000000 256.000000"><path d="M231 2.3c-6.4 3.3-9.4 9.3-8.6 16.9l.6 5.8-15.5 13.2c-9.1 7.7-15.5 13.9-15.5 14.9 0 1.8 2.5 4.9 4 4.9 1.1 0 8.2-5.7 22.7-18.2l10.2-8.7 3.5 1.4c13.7 5.8 28-8.3 22.2-21.8-.7-1.8-2.6-4.4-4.2-5.9-5.7-5.3-12.5-6.2-19.4-2.5zm13.7 8.9c3.2 3 3.1 8.7-.1 11.7-7.6 7.2-18.7-3.9-11.5-11.5 2.9-3.1 8.4-3.2 11.6-.2z"/><path d="M101 35.1c-9.1 1.2-23.2 5.4-31.5 9.4C54.8 51.7 39 64.1 39 68.6c0 4.7 5.4 4.9 9.5.5C53.4 63.6 74.9 50 78.7 50c.5 0 4.7 3.9 9.4 8.7l8.4 8.7-6.9.8C70.7 70.4 48.5 77 31.8 85.4c-11.8 5.9-12.9 7.2-17.7 22.1-4.3 13.5-5.5 22.4-4.8 38.3.6 14 2.9 25.9 6.5 33.2 1.4 2.8 2.3 3.5 4.7 3.5 4 0 4.2-2 1.1-12.6-1.8-6.2-2.1-8.7-1.3-9.7 2.3-2.8 24.1-16.5 33-20.7 11.6-5.5 27.6-10.9 39.9-13.4 11-2.3 33.9-4.5 34.8-3.4 1.1 1.4 4.9 14.7 7.2 25.3 1.9 9.1 2.2 13.5 2.3 33 0 24.6-.8 31.2-6.6 50.7-3.8 13-3.2 14.9 3.9 13.8 13.1-2 32.7-10.5 44.4-19.4 29.8-22.7 46.1-59.9 41.9-95.6-1-8.9-4-22.1-6.6-28.6-.4-1.2 1.2-3.1 6-6.9l6.7-5.3 3.1 1.9c2.1 1.2 5.1 1.8 8.8 1.9 4.6 0 6.3-.5 9.3-2.8 7.5-5.8 9.5-13.2 5.6-21.1-8-16.6-33.5-9.9-31.8 8.3l.5 4.6L207.8 94c-15.4 12-17.9 15-14.3 17.7 2.5 1.8 2.6 1.8 8.4-2.2l5-3.5 2.1 6.6c5.9 19.1 5.3 42.4-1.5 61.3-4.6 12.7-13.5 26.9-21.9 35.1l-3.6 3.4 1.5-5.1c9.9-33.4 9.2-72.6-2.1-107.1-3.8-11.8-13-31.2-19.3-41-2.2-3.4-3.9-6.2-3.7-6.2.2 0 2.5 1.2 5.2 2.7 9.4 5.2 19.6 13.9 28.7 24.6 4.8 5.7 7.2 6.8 9.5 4.5 2.1-2.1 1.3-4.5-3.5-10.5-23.5-29-60.6-44-97.3-39.2zm12 14.6c20.1 21.9 34.5 48.4 41.3 75.8 4.5 17.9 5.2 24.1 5.2 45 0 16.6-.4 21.9-2.3 31-2.6 13.1-7.7 29.9-9.4 31.2-1.6 1.2-8 3.4-8.5 2.9-.2-.2.5-3.7 1.6-7.7 4.2-15.6 5.5-25.7 5.5-45.4 0-11.1-.5-22.3-1.3-27-6.4-39.5-22.5-72.6-48.6-100.3-4.3-4.5-7.5-8.5-7.3-8.8.6-.5 13.2-3.1 16-3.3.9-.1 4.4 2.9 7.8 6.6zm19.6-5.2c5 .9 9.7 2.3 10.7 3.3 3.1 2.8 15.5 21.9 19.9 30.6 21.1 42 24.5 89.4 9.6 134.3-2.8 8.5-3.5 9.7-7 11.9-4.8 3.1-7.4 4.1-6.5 2.7.3-.5 1.8-5.4 3.2-10.9 9.8-37.8 7.5-78.7-6.5-113.9-6.9-17.2-20-39.4-30.2-51.1-7.4-8.4-7.4-8.4-4.6-8.4 1.4 0 6.5.7 11.4 1.5zM242 69c2.2 0 5 4.6 5 8.1 0 4.6-3.6 7.9-8.5 7.9-8.2 0-10.7-12.2-3.2-15.5 1.8-.8 3.8-1.2 4.5-1 .8.3 1.8.5 2.2.5zM107.8 82.7c2.4 3.5 4.1 6.7 3.8 7.1-.3.5-4.3 1.2-8.8 1.5-23.5 1.6-57.5 12.9-77.2 25.5-2.8 1.8-5.3 3.2-5.7 3.2-.8 0 2.7-11.8 5.6-18.8 2-4.8 5.4-6.9 22-13.5C63.8 81.2 87.2 75.9 98 76.3l5.4.2 4.4 6.2zm13.4 23.5l3.5 7.3-4.1.3c-34.9 2.3-66 12.6-93.1 30.7-10.7 7.2-10.5 7.3-10.5-4.7V133l4.7-3.5c22.4-16.3 62.4-29.9 89.4-30.4l6.7-.1 3.4 7.2z"/><path d="M27.5 191.6C1.1 214.6 0 215.6 0 217.7c0 1.5 2.8 4.3 4.4 4.3.7 0 6.2-4.3 12.2-9.5 6-5.2 11.2-9.5 11.5-9.5.4 0 2.5 2.4 4.8 5.4 4.7 6.1 6.4 7.1 9.2 5.6 3-1.7 2.2-5.1-2.6-11-2.5-3-4.5-5.8-4.5-6.1 0-.3 5.4-5.3 12-11s12.3-11.2 12.6-12.2c.7-2.3-1.3-4.7-4-4.7-1.4 0-11.6 8.2-28.1 22.6zM35 229c-26.2 20.5-28.4 22.8-24.5 26 2.3 1.9 3.9.9 22.6-13.7 9.1-7.2 17.1-13.3 17.7-13.7.6-.4 5.2 1.8 10.1 4.8 15.7 9.4 35.2 15 50.3 14.4l7.3-.3v-2.9c0-1.6-.7-3.2-1.5-3.6-.8-.5-6.4-1.3-12.4-1.9-13-1.3-26.8-5.7-38.1-12.2l-7.7-4.4 3.6-3c3.7-3.1 4.6-6.1 2.4-8.3-.7-.7-1.9-1.2-2.7-1.2-.9 0-13.1 9-27.1 20z"/></svg>