<svg xmlns="http://www.w3.org/2000/svg" width="341.333" height="341.333" preserveAspectRatio="xMidYMid meet" version="1.0" viewBox="0 0 256 256"><metadata>Created by potrace 1.11, written by Peter Selinger 2001-2013</metadata><g fill="#000" stroke="none"><path d="M1435 2291 c-34 -14 -1098 -751 -1122 -778 -25 -26 -31 -80 -13 -114 13 -23 61 -49 93 -49 13 0 63 27 112 61 49 33 93 63 97 65 4 3 8 -168 8 -380 l0 -386 -185 0 -185 0 -11 -27 c-6 -17 -9 -102 -7 -216 2 -154 6 -189 18 -197 20 -13 2060 -13 2080 0 13 8 15 86 18 583 1 365 -1 584 -8 601 l-10 26 -500 0 -500 0 0 248 1 247 113 78 c125 86 146 113 130 170 -6 18 -24 41 -43 54 -36 24 -53 27 -86 14z m53 -73 c7 -7 12 -17 12 -24 0 -16 -1090 -768 -1115 -768 -13 -1 -21 6 -23 20 -3 18 83 81 549 403 304 209 555 381 559 381 3 0 11 -5 18 -12z m-248 -719 l0 -410 -27 3 -28 3 -3 390 -2 390 22 17 c13 10 26 18 31 18 4 0 7 -185 7 -411z m-130 -44 l0 -365 -150 0 -150 0 2 267 3 266 140 98 c77 54 143 98 148 99 4 0 7 -164 7 -365z m-370 -315 l0 -430 -30 0 -30 0 0 409 0 409 28 21 c15 11 28 21 30 21 1 0 2 -193 2 -430z m1520 110 l0 -160 -470 0 -470 0 0 160 0 160 470 0 470 0 0 -160z m0 -385 l0 -155 -725 0 -725 0 0 155 0 155 725 0 725 0 0 -155z m0 -380 l0 -155 -980 0 -980 0 0 155 0 155 980 0 980 0 0 -155z" transform="translate(0.000000,256.000000) scale(0.100000,-0.100000)"/></g></svg>