<svg xmlns="http://www.w3.org/2000/svg" width="682.667" height="682.667" preserveAspectRatio="xMidYMid meet" version="1.0" viewBox="0 0 512 512"><metadata>Created by potrace 1.11, written by Peter Selinger 2001-2013</metadata><g fill="#000" stroke="none"><path d="M2991 3949 c-59 -11 -137 -37 -184 -61 -35 -18 -42 -18 -126 -3 -666 115 -1236 67 -1686 -145 -464 -217 -800 -612 -951 -1115 -38 -126 -50 -233 -37 -312 14 -79 67 -190 119 -252 l38 -43 -23 -137 c-33 -203 -51 -390 -51 -539 0 -128 1 -134 25 -157 l24 -25 294 0 c287 0 295 1 322 22 26 20 27 24 23 92 -3 44 -13 86 -26 112 l-21 40 61 70 c33 38 89 106 126 152 36 45 68 80 71 77 3 -3 13 -46 23 -96 36 -177 130 -420 175 -455 14 -11 90 -13 356 -14 l338 0 24 25 c20 19 25 34 25 73 0 107 -69 254 -137 294 l-33 20 0 144 c0 167 -16 149 145 158 107 6 244 28 319 50 l45 14 5 -32 c3 -17 8 -69 11 -116 13 -200 93 -569 131 -607 l23 -23 341 0 341 0 24 25 c66 65 -3 246 -111 291 l-32 14 14 62 c30 127 164 478 183 478 3 0 33 -51 66 -112 144 -268 308 -500 449 -636 130 -125 118 -122 452 -122 l281 0 28 28 c25 24 27 32 22 80 -11 108 -89 200 -193 225 -47 12 -51 16 -86 82 -44 83 -120 272 -183 455 -25 73 -45 135 -45 137 0 10 114 -8 270 -42 188 -40 262 -53 405 -70 94 -11 114 -11 140 2 45 21 315 387 315 426 0 26 -23 54 -145 176 -137 139 -145 149 -155 199 -49 260 -204 505 -405 638 -45 30 -53 41 -74 105 -39 112 -91 136 -171 78 -48 -35 -52 -35 -160 11 -162 68 -434 146 -575 165 -31 4 -70 20 -103 41 -88 58 -216 78 -341 53z m-706 -179 c116 -11 318 -37 347 -46 16 -5 15 -9 -4 -52 -45 -103 -100 -284 -147 -485 -63 -267 -189 -903 -199 -999 l-7 -73 -55 -19 c-157 -53 -476 -78 -720 -57 -143 12 -260 30 -260 38 0 3 15 31 34 62 93 154 131 261 124 351 -8 116 -78 162 -252 168 -60 3 -150 -1 -200 -8 -178 -24 -510 -119 -592 -169 -49 -30 -87 -87 -115 -175 l-26 -80 -18 34 c-58 113 -6 356 135 629 256 492 735 799 1370 876 130 16 438 18 585 5z m1263 -106 c105 -25 258 -73 360 -112 75 -28 92 -38 86 -51 -37 -86 -43 -163 -23 -277 13 -78 43 -114 92 -114 61 0 305 134 321 176 6 15 14 11 52 -27 82 -80 184 -254 184 -314 0 -30 -39 -120 -74 -172 -34 -49 -34 -96 -1 -128 13 -14 34 -25 45 -25 32 0 74 25 90 54 7 14 16 26 19 26 4 0 57 -51 118 -112 l112 -113 -98 -131 -99 -131 -99 13 c-126 17 -189 29 -348 64 -71 16 -189 36 -262 45 -130 15 -512 45 -586 45 l-38 0 22 31 c12 17 45 58 74 91 97 111 126 200 126 384 0 120 -16 239 -51 384 -20 83 -95 345 -110 385 -12 31 -5 31 88 9z" transform="translate(0.000000,512.000000) scale(0.100000,-0.100000)"/></g></svg>