<svg xmlns="http://www.w3.org/2000/svg" width="682.667" height="682.667" preserveAspectRatio="xMidYMid meet" version="1.0" viewBox="0 0 512 512"><metadata>Created by potrace 1.11, written by Peter Selinger 2001-2013</metadata><g fill="#000" stroke="none"><path d="M4585 4659 c-226 -33 -432 -152 -565 -327 l-52 -68 -116 58 c-154 77 -274 107 -447 115 -212 8 -393 -31 -588 -128 -244 -121 -393 -261 -580 -547 -120 -181 -209 -339 -449 -796 -262 -500 -358 -674 -488 -896 -394 -670 -764 -1098 -1185 -1371 -111 -71 -133 -108 -103 -173 19 -44 51 -56 176 -68 203 -18 552 2 807 46 672 117 1353 421 1970 881 366 272 695 579 1033 965 226 256 277 330 353 502 140 318 139 666 -1 966 l-40 84 30 43 c68 99 190 181 312 210 88 21 162 19 254 -7 114 -31 150 -29 185 10 l29 32 0 174 c0 173 0 175 -26 205 -60 71 -320 117 -509 90z" transform="translate(0.000000,512.000000) scale(0.100000,-0.100000)"/></g></svg>