<?xml version="1.0" standalone="no"?>
<!DOCTYPE svg PUBLIC "-//W3C//DTD SVG 20010904//EN"
 "http://www.w3.org/TR/2001/REC-SVG-20010904/DTD/svg10.dtd">
<svg version="1.0" xmlns="http://www.w3.org/2000/svg"
 width="256.000000pt" height="256.000000pt" viewBox="0 0 256.000000 256.000000"
 preserveAspectRatio="xMidYMid meet">
<metadata>
Created by potrace 1.11, written by Peter Selinger 2001-2013
</metadata>
<g transform="translate(0.000000,256.000000) scale(0.100000,-0.100000)"
fill="#000000" stroke="none">
<path d="M1017 2104 c-1 -1 -42 -4 -92 -7 -318 -22 -655 -152 -836 -325 -87
-82 -114 -152 -59 -152 26 0 63 18 219 108 167 97 383 179 543 207 124 22 343
27 433 10 17 -3 41 -8 55 -10 14 -3 43 -8 65 -11 68 -10 197 -54 269 -92 124
-65 217 -173 229 -267 15 -109 -112 -241 -279 -290 -194 -57 -484 8 -484 109
0 24 62 86 86 86 6 0 19 9 28 19 17 19 17 20 -5 31 -33 18 -145 7 -201 -19
-72 -35 -122 -90 -132 -146 -19 -108 96 -223 284 -284 92 -29 147 -36 295 -35
243 1 428 74 580 228 73 73 105 135 112 216 17 180 -123 361 -368 478 -148 71
-341 118 -560 137 -76 7 -178 12 -182 9z"/>
<path d="M920 1793 c-236 -35 -475 -147 -610 -283 -106 -107 -158 -226 -158
-360 0 -159 75 -301 223 -423 80 -67 257 -160 345 -182 3 -1 12 -4 20 -7 68
-26 254 -62 380 -73 93 -9 319 -9 380 -1 25 4 63 9 85 12 72 9 198 42 304 79
376 131 647 371 667 590 6 69 -9 108 -44 113 -18 3 -46 -20 -125 -100 -56 -57
-135 -125 -175 -151 -162 -108 -386 -190 -612 -225 -60 -9 -318 -9 -402 1
-149 16 -320 68 -425 128 -81 46 -165 129 -198 196 -26 50 -30 69 -30 138 0
66 4 89 25 129 69 135 291 251 496 260 143 6 291 -39 324 -97 19 -34 9 -51
-56 -95 -27 -19 -50 -37 -52 -41 -4 -13 47 -31 86 -31 81 0 172 44 204 97 38
66 27 124 -38 188 -38 37 -155 99 -205 109 -13 2 -31 7 -39 10 -45 16 -301 29
-370 19z"/>
</g>
</svg>
