<svg xmlns="http://www.w3.org/2000/svg" width="341.333" height="341.333" preserveAspectRatio="xMidYMid meet" version="1.0" viewBox="0 0 256 256"><metadata>Created by potrace 1.11, written by Peter Selinger 2001-2013</metadata><g fill="#000" stroke="none"><path d="M268 2541 c-70 -23 -113 -49 -160 -98 -74 -77 -116 -198 -103 -297 13 -103 39 -143 285 -433 129 -153 243 -287 253 -300 17 -21 17 -24 -6 -70 -51 -101 -87 -248 -87 -353 0 -46 -4 -61 -21 -76 -38 -33 -86 -118 -108 -188 -78 -253 86 -517 354 -567 33 -6 132 -9 227 -7 117 2 168 0 168 -8 0 -6 14 -30 31 -53 35 -48 114 -91 169 -91 83 0 164 46 200 113 l22 42 167 -3 c94 -2 194 1 226 7 194 36 340 189 367 386 18 122 -21 251 -105 350 -31 37 -34 47 -45 150 -12 118 -26 170 -74 278 -28 60 -30 69 -16 85 8 9 124 147 258 306 174 207 248 302 261 337 55 145 18 303 -95 407 -149 137 -372 132 -515 -11 -30 -30 -105 -148 -226 -358 -162 -280 -184 -314 -206 -313 -13 1 -66 8 -116 15 -75 10 -112 10 -190 -1 -54 -7 -107 -13 -117 -14 -15 -1 -59 67 -201 314 -120 207 -197 330 -226 358 -96 96 -248 134 -371 93z m184 -146 c24 -9 61 -32 80 -53 20 -20 104 -156 188 -302 84 -146 161 -279 171 -296 l19 -31 -38 -21 -38 -21 -168 224 c-139 186 -172 225 -198 230 -42 10 -82 -21 -86 -64 -3 -28 17 -59 158 -247 89 -119 163 -221 166 -228 2 -6 -9 -24 -25 -40 l-29 -28 -75 89 c-41 48 -146 171 -232 273 -86 102 -164 199 -173 215 -24 44 -21 140 5 190 27 51 57 79 113 104 54 25 101 26 162 6z m1799 4 c51 -16 105 -62 131 -112 27 -52 30 -147 6 -192 -15 -27 -71 -95 -375 -454 l-105 -123 -30 30 -30 29 166 224 c147 198 166 228 164 258 -6 66 -80 91 -126 42 -9 -9 -86 -111 -170 -224 l-152 -207 -41 20 -40 21 19 32 c11 18 90 155 177 305 162 281 193 322 266 348 44 16 92 17 140 3z m-768 -782 c282 -91 460 -329 474 -635 l6 -113 47 -49 c26 -27 56 -69 68 -92 61 -131 21 -283 -97 -370 -66 -48 -116 -58 -291 -58 -153 0 -159 1 -211 28 -61 32 -106 88 -115 143 -6 33 1 47 56 129 80 118 100 163 100 226 0 146 -131 244 -295 220 -102 -16 -185 -110 -187 -213 -2 -66 12 -97 94 -220 37 -56 68 -113 68 -125 0 -44 -57 -125 -107 -155 -48 -28 -48 -28 -233 -28 -183 0 -186 0 -242 28 -69 34 -121 91 -148 164 -42 111 -16 220 75 323 l55 61 0 82 c1 326 219 600 536 671 99 22 247 15 347 -17z m-139 -738 c38 -30 34 -70 -15 -146 -23 -35 -45 -63 -49 -63 -10 0 -88 121 -90 140 -5 32 1 51 20 70 28 28 98 27 134 -1z m6 -670 c0 -23 -46 -59 -74 -59 -28 0 -66 35 -66 60 0 10 15 33 33 52 l32 34 38 -35 c20 -19 37 -43 37 -52z" transform="translate(0.000000,256.000000) scale(0.100000,-0.100000)"/><path d="M938 1186 c-39 -30 -40 -92 0 -122 43 -33 112 4 112 61 0 57 -69 94 -112 61z" transform="translate(0.000000,256.000000) scale(0.100000,-0.100000)"/><path d="M1538 1186 c-39 -30 -40 -92 0 -122 34 -26 92 -9 111 34 29 63 -56 130 -111 88z" transform="translate(0.000000,256.000000) scale(0.100000,-0.100000)"/></g></svg>