<svg xmlns="http://www.w3.org/2000/svg" width="336" height="336" version="1" viewBox="0 0 252 252"><path d="M116.9 1.5c-.2.2-3.1.6-6.4.9-3.3.3-7.1.8-8.5 1.1-1.4.3-3.6.7-5 1-4.5.8-19.7 6.3-26.2 9.3C42.6 27.4 18.4 54.1 7.7 83.5-1.6 109.4-1.8 140 7 166c10.2 29.7 33.4 56.2 61.7 70.6 4.8 2.4 12.9 5.8 17.9 7.4 9.5 3 10.5 3.3 21.4 5.1 6.7 1.1 27.1 1.4 32.5.5 1.7-.3 5-.8 7.5-1.1 5.5-.8 18.6-4.5 25.8-7.4 38.7-15.4 67-49.4 75.9-91.2 1.3-6.3 1.7-12.6 1.7-24.9-.1-14.2-.5-18-2.7-27-6.9-28.1-21.5-51.4-43.3-68.9-15.9-12.9-37.6-22.8-55.9-25.7-2.2-.3-4.4-.8-4.8-1.1-1-.6-27.3-1.4-27.8-.8zm25.6 17c37.8 6 71.1 32 85.1 66.6 11.6 28.5 10.5 60-3 87.4-9.8 19.9-23.7 35-42.2 46.2-8.5 5.2-23.8 11.3-31.9 12.8-16.2 3.1-28.8 3.4-42.5 1.1-12.1-2-20.1-4.6-32-10.7-31.7-16.2-53.2-46.3-58.6-81.9-1.1-7.9-.7-24.2 1-33.3 8.7-46.5 48.2-83.5 94.1-88.4 2.8-.3 5.1-.7 5.3-.8.5-.5 20.6.3 24.7 1z"/><path d="M65.9 49.2c-10 10-17.2 23.8-20.4 38.7-1.3 6.1-1.4 24.5-.2 29.6 3.8 16.1 9.6 27.2 20 38.2 4.1 4.3 5.6 5.3 8.3 5.3 2.5 0 3.8-.7 5-2.5 2-3 1.2-5.5-3.2-10.3-22.2-23.8-24.2-59.2-4.8-84.8 2-2.7 4.7-5.8 6-6.9 4.9-4.3 3.3-10.9-2.8-12-2.2-.4-3.6.4-7.9 4.7zM173 47c-3.1 3.1-2.4 5.6 2.7 11.5 10.6 12 16 24.5 17.2 39.9.7 10-1.1 21.5-4.8 30-2.9 6.6-10.1 17.3-14.5 21.5-4 3.9-4.5 6.9-1.8 9.4 3.5 3.2 7.6 2.2 12.5-3.1 9.2-9.5 13.6-17 17.9-29.6 2.7-7.8 3.1-10.8 3.4-21.1.3-13.9-1.1-21.6-5.7-32.5-3.8-8.8-8.9-16.6-15.1-23.3-5-5.3-8.4-6.1-11.8-2.7z"/><path d="M88 71.7c-16.1 18.3-15.9 45.3.5 62.9 4.6 4.9 8.9 5.8 11.8 2.6 2.7-3 2-5.9-2.7-11.6-8-9.9-10.4-21.1-7-32.6 1.8-6.1 3.4-8.9 8.1-14.3 2.7-3 3.2-4.3 2.7-6.5-.8-3.4-3-5.2-6.5-5.2-2 0-3.9 1.3-6.9 4.7zM150.6 69.2c-2.4 3.4-1.9 5.7 2.5 11.4 6.9 9 9.5 19.3 7.4 29.9-.9 4.5-5.2 12.4-9.1 16.7-4 4.4-4.4 8-1.2 10.2 3.9 2.8 6.8 2 11.8-3.2 10.7-11.1 15-29.4 10.5-44.5C169.4 79.2 160 67 154.9 67c-1.7 0-3.4.8-4.3 2.2zM119.6 88.5c-4.7 1.7-7.4 4.1-9.2 8.4-1.9 4.6-1.8 7.7.7 12.7 5.3 11.1 20.6 11.8 27.6 1.4 1.7-2.4 2.3-4.8 2.3-8.6 0-4.8-.4-5.9-3.6-9.4-1.9-2.1-4.4-4.2-5.4-4.5-3.8-1.2-8.8-1.2-12.4 0zM124.2 135.3c-.7 1-7.2 31-8.8 41.2-.3 1.6-2 10.1-3.7 18.7-2 9.5-3 16.5-2.5 17.7.7 2 1.5 2.1 15.6 2.1 11.6 0 15.2-.3 16.1-1.4.9-1.1.7-4.3-.9-13.7-1.2-6.7-2.3-12.5-2.4-12.8-.2-.3-.7-2.8-1-5.4-.4-2.6-1.1-7.1-1.7-10-.5-2.9-1.2-6.6-1.5-8.2-.2-1.7-1.2-6.8-2.1-11.5-.9-4.7-1.7-9.5-1.8-10.7-.7-5.6-3.3-8.6-5.3-6z"/></svg>