<svg xmlns="http://www.w3.org/2000/svg" width="682.667" height="682.667" preserveAspectRatio="xMidYMid meet" version="1.0" viewBox="0 0 512 512"><metadata>Created by potrace 1.11, written by Peter Selinger 2001-2013</metadata><g fill="#000" stroke="none"><path d="M2320 5110 c-206 -22 -453 -78 -635 -144 -235 -86 -522 -249 -725 -412 -105 -84 -284 -263 -368 -367 -315 -387 -517 -883 -563 -1381 -14 -157 -6 -459 16 -601 64 -409 217 -779 470 -1132 l37 -52 -107 -253 c-59 -139 -114 -282 -123 -317 -51 -206 112 -428 328 -447 54 -5 150 9 568 81 l503 87 127 -35 c254 -72 437 -97 700 -97 350 0 635 54 957 182 460 183 889 533 1167 954 387 585 516 1271 367 1962 -36 166 -114 387 -198 557 -375 761 -1075 1269 -1931 1400 -124 19 -468 28 -590 15z m1142 -1610 c101 -28 164 -150 127 -247 -12 -34 -64 -90 -101 -109 -23 -12 -171 -14 -928 -14 -969 0 -926 -2 -984 49 -49 43 -70 142 -45 208 15 40 57 82 104 104 38 18 85 19 915 19 572 0 888 -4 912 -10z m50 -809 c127 -81 112 -268 -27 -332 -38 -18 -86 -19 -925 -19 -840 0 -887 1 -925 19 -47 22 -89 64 -104 104 -25 66 -4 164 45 209 56 50 13 48 985 48 l905 0 46 -29z m-1057 -763 c17 -9 42 -29 57 -45 81 -86 60 -234 -44 -293 l-43 -25 -385 0 c-367 0 -387 1 -419 20 -61 36 -94 88 -99 153 -7 95 47 174 138 201 22 6 175 9 400 8 319 -2 369 -4 395 -19z" transform="translate(0.000000,512.000000) scale(0.100000,-0.100000)"/></g></svg>